<svg width="40" height="40" viewBox="0 0 40 40" fill="none" xmlns="http://www.w3.org/2000/svg">
<g clip-path="url(#clip0_2_176)">
<path d="M24.1725 2.16L20 0L15.8275 2.16L11.1825 2.865L9.07749 7.065L5.73499 10.365L6.49999 15L5.73499 19.635L9.07749 22.935L11.1825 27.135L15.8275 27.84L20 30L24.1725 27.84L28.8175 27.135L30.9225 22.935L34.265 19.635L33.5 15L34.265 10.365L30.9225 7.065L28.8175 2.865L24.1725 2.16ZM27.1625 5.1425L28.8725 8.555L31.5875 11.235L30.9675 15L31.5875 18.765L28.8725 21.445L27.1625 24.8575L23.3875 25.43L20 27.185L16.6125 25.43L12.8375 24.8575L11.1275 21.445L8.41249 18.765L9.03499 15L8.40999 11.235L11.1275 8.555L12.8375 5.1425L16.6125 4.57L20 2.815L23.39 4.57L27.1625 5.1425Z" fill="white"/>
<path d="M10 29.485V40L20 37.5L30 40V29.485L24.955 30.25L20 32.815L15.045 30.25L10 29.485Z" fill="white"/>
</g>
<defs>
<clipPath id="clip0_2_176">
<rect width="40" height="40" fill="white"/>
</clipPath>
</defs>
</svg>
