<svg width="39" height="39" viewBox="0 0 39 39" fill="none" xmlns="http://www.w3.org/2000/svg">
<path fill-rule="evenodd" clip-rule="evenodd" d="M18.5 0C16.8736 0 14.1558 0.645938 11.5983 1.365C8.98186 2.09625 6.34422 2.96156 4.79322 3.48562C4.14475 3.70708 3.56985 4.1132 3.13454 4.65733C2.69924 5.20147 2.4212 5.86155 2.33237 6.56175C0.927513 17.4744 4.18744 25.5621 8.14272 30.9124C9.82002 33.2011 11.8199 35.2166 14.0756 36.8916C14.9855 37.557 15.8294 38.0664 16.5459 38.415C17.2059 38.7368 17.9154 39 18.5 39C19.0846 39 19.7917 38.7368 20.4541 38.415C21.3179 37.9808 22.1444 37.4711 22.9244 36.8916C25.1801 35.2166 27.18 33.2011 28.8573 30.9124C32.8126 25.5621 36.0725 17.4744 34.6676 6.56175C34.5789 5.86122 34.301 5.20075 33.8657 4.65619C33.4304 4.11164 32.8554 3.70507 32.2068 3.48319C29.9552 2.71979 27.6862 2.01271 25.4017 1.36256C22.8442 0.648375 20.1264 0 18.5 0ZM23.5584 12.5434C23.7797 12.3145 24.0799 12.186 24.3929 12.186C24.7058 12.186 25.006 12.3145 25.2273 12.5434C25.4486 12.7722 25.5729 13.0826 25.5729 13.4062C25.5729 13.7299 25.4486 14.0403 25.2273 14.2691L18.1559 21.5816C18.0464 21.6951 17.9163 21.7852 17.7731 21.8466C17.63 21.9081 17.4765 21.9397 17.3214 21.9397C17.1664 21.9397 17.0129 21.9081 16.8697 21.8466C16.7265 21.7852 16.5965 21.6951 16.487 21.5816L12.9513 17.9254C12.8417 17.8121 12.7548 17.6775 12.6955 17.5295C12.6362 17.3814 12.6057 17.2228 12.6057 17.0625C12.6057 16.9022 12.6362 16.7436 12.6955 16.5955C12.7548 16.4475 12.8417 16.3129 12.9513 16.1996C13.0609 16.0863 13.191 15.9964 13.3341 15.9351C13.4773 15.8738 13.6307 15.8422 13.7857 15.8422C13.9407 15.8422 14.0941 15.8738 14.2373 15.9351C14.3805 15.9964 14.5106 16.0863 14.6201 16.1996L17.3214 18.9954L23.5584 12.5434Z" fill="white"/>
</svg>
