<svg width="21" height="21" viewBox="0 0 21 21" fill="none" xmlns="http://www.w3.org/2000/svg">
<path fill-rule="evenodd" clip-rule="evenodd" d="M1.3125 10.5C1.3125 10.3259 1.38164 10.159 1.50471 10.0359C1.62778 9.91287 1.7947 9.84372 1.96875 9.84372H17.4471L13.3166 5.7146C13.1934 5.59137 13.1242 5.42424 13.1242 5.24997C13.1242 5.07571 13.1934 4.90858 13.3166 4.78535C13.4399 4.66212 13.607 4.5929 13.7812 4.5929C13.9555 4.5929 14.1226 4.66212 14.2459 4.78535L19.4959 10.0353C19.557 10.0963 19.6055 10.1687 19.6386 10.2485C19.6716 10.3282 19.6887 10.4137 19.6887 10.5C19.6887 10.5863 19.6716 10.6718 19.6386 10.7515C19.6055 10.8312 19.557 10.9036 19.4959 10.9646L14.2459 16.2146C14.1226 16.3378 13.9555 16.4071 13.7812 16.4071C13.607 16.4071 13.4399 16.3378 13.3166 16.2146C13.1934 16.0914 13.1242 15.9242 13.1242 15.75C13.1242 15.5757 13.1934 15.4086 13.3166 15.2853L17.4471 11.1562H1.96875C1.7947 11.1562 1.62778 11.0871 1.50471 10.964C1.38164 10.8409 1.3125 10.674 1.3125 10.5Z" fill="white"/>
</svg>
