<svg width="40" height="40" viewBox="0 0 40 40" fill="none" xmlns="http://www.w3.org/2000/svg">
<g clip-path="url(#clip0_2_189)">
<path d="M2.5 7.07001C4.7125 6.14501 7.885 5.14751 10.97 4.83751C14.295 4.50251 17.115 4.99501 18.75 6.71751V31.0825C16.4125 29.7575 13.45 29.575 10.7175 29.85C7.7675 30.15 4.7925 31.0025 2.5 31.8775V7.07001ZM21.25 6.71751C22.885 4.99501 25.705 4.50251 29.03 4.83751C32.115 5.14751 35.2875 6.14501 37.5 7.07001V31.8775C35.205 31.0025 32.2325 30.1475 29.2825 29.8525C26.5475 29.575 23.5875 29.755 21.25 31.0825V6.71751ZM20 4.45751C17.5375 2.34001 13.9675 2.02501 10.7175 2.35001C6.9325 2.73251 3.1125 4.03001 0.7325 5.11251C0.514123 5.21183 0.328938 5.37189 0.199053 5.57359C0.0691667 5.77529 6.64286e-05 6.0101 0 6.25001L0 33.75C5.7905e-05 33.9592 0.0525929 34.1649 0.152793 34.3485C0.252993 34.5321 0.397654 34.6876 0.573527 34.8008C0.7494 34.914 0.950861 34.9812 1.15946 34.9964C1.36806 35.0115 1.57712 34.9741 1.7675 34.8875C3.9725 33.8875 7.525 32.685 10.9675 32.3375C14.49 31.9825 17.4425 32.555 19.025 34.53C19.1421 34.676 19.2905 34.7938 19.4593 34.8748C19.628 34.9557 19.8128 34.9978 20 34.9978C20.1872 34.9978 20.372 34.9557 20.5407 34.8748C20.7095 34.7938 20.8579 34.676 20.975 34.53C22.5575 32.555 25.51 31.9825 29.03 32.3375C32.475 32.685 36.03 33.8875 38.2325 34.8875C38.4229 34.9741 38.6319 35.0115 38.8405 34.9964C39.0491 34.9812 39.2506 34.914 39.4265 34.8008C39.6023 34.6876 39.747 34.5321 39.8472 34.3485C39.9474 34.1649 39.9999 33.9592 40 33.75V6.25001C39.9999 6.0101 39.9308 5.77529 39.8009 5.57359C39.6711 5.37189 39.4859 5.21183 39.2675 5.11251C36.8875 4.03001 33.0675 2.73251 29.2825 2.35001C26.0325 2.02251 22.4625 2.34001 20 4.45751Z" fill="white"/>
</g>
<defs>
<clipPath id="clip0_2_189">
<rect width="40" height="40" fill="white"/>
</clipPath>
</defs>
</svg>
