<svg width="36" height="36" viewBox="0 0 36 36" fill="none" xmlns="http://www.w3.org/2000/svg">
<g clip-path="url(#clip0_12_237)">
<path d="M18 24.75C19.7902 24.75 21.5071 24.0388 22.773 22.773C24.0388 21.5071 24.75 19.7902 24.75 18C24.75 16.2098 24.0388 14.4929 22.773 13.227C21.5071 11.9612 19.7902 11.25 18 11.25C16.2098 11.25 14.4929 11.9612 13.227 13.227C11.9612 14.4929 11.25 16.2098 11.25 18C11.25 19.7902 11.9612 21.5071 13.227 22.773C14.4929 24.0388 16.2098 24.75 18 24.75Z" fill="white"/>
<path d="M31.4932 11.6325C31.5663 9.48685 31.0238 7.36512 29.93 5.51782C28.8361 3.67051 27.2365 2.17476 25.32 1.20718C23.4036 0.239601 21.2503 -0.159408 19.1143 0.0572658C16.9784 0.27394 14.9491 1.09725 13.266 2.42998C10.9567 2.00829 8.57335 2.31954 6.4498 3.32014C4.32625 4.32075 2.56891 5.96057 1.42395 8.00989C0.278986 10.0592 -0.19623 12.4154 0.0648731 14.7483C0.325976 17.0812 1.31032 19.274 2.88 21.0195C2.02597 23.447 2.03002 26.094 2.89145 28.5189C3.75288 30.9438 5.41963 33.0001 7.61372 34.3448C9.80782 35.6896 12.3966 36.2414 14.9484 35.9084C17.5001 35.5754 19.8605 34.3775 21.636 32.5147C23.0093 33.3915 24.6208 33.8206 26.2483 33.7431C27.8758 33.6655 29.4392 33.0851 30.7229 32.0817C32.0067 31.0783 32.9476 29.7015 33.416 28.1409C33.8844 26.5804 33.8573 24.9129 33.3382 23.3685C34.3062 22.63 35.0565 21.6435 35.5097 20.5134C35.9629 19.3833 36.1021 18.1518 35.9125 16.9491C35.723 15.7464 35.2118 14.6173 34.433 13.6814C33.6543 12.7454 32.637 12.0375 31.4887 11.6325H31.4932ZM29.2432 11.556C29.2272 12.0347 29.3643 12.506 29.6346 12.9013C29.9049 13.2967 30.2944 13.5955 30.7462 13.7542C31.5117 14.0246 32.1899 14.4968 32.7089 15.121C33.2279 15.7452 33.5685 16.4981 33.6946 17.3001C33.8208 18.102 33.7277 18.9231 33.4254 19.6765C33.123 20.4299 32.6225 21.0875 31.977 21.5797C31.6037 21.8648 31.329 22.2596 31.1914 22.7087C31.0538 23.1578 31.0602 23.6387 31.2097 24.084C31.5815 25.1874 31.6017 26.3789 31.2675 27.4943C30.9333 28.6096 30.2613 29.5938 29.3441 30.311C28.4269 31.0282 27.3097 31.4431 26.1467 31.4985C24.9837 31.5539 23.8322 31.247 22.851 30.6202C22.4114 30.3392 21.8879 30.2196 21.3699 30.282C20.8519 30.3444 20.3717 30.5849 20.0115 30.9622C18.5915 32.454 16.7028 33.4136 14.6607 33.681C12.6186 33.9483 10.5465 33.5071 8.79043 32.431C7.03433 31.355 5.70041 29.7092 5.01131 27.7683C4.32221 25.8275 4.31963 23.709 5.004 21.7665C5.13775 21.3856 5.16654 20.9757 5.08737 20.5798C5.00819 20.1839 4.82396 19.8167 4.554 19.5165C3.29783 18.1201 2.51001 16.3657 2.30093 14.4991C2.09185 12.6326 2.47199 10.7473 3.38809 9.10766C4.30418 7.46796 5.71032 6.15597 7.40946 5.35552C9.10861 4.55506 11.0156 4.30626 12.8632 4.64398C13.178 4.70127 13.5014 4.69076 13.8118 4.61316C14.1222 4.53556 14.4125 4.39266 14.6632 4.19398C16.0099 3.12821 17.6334 2.46998 19.3421 2.29702C21.0507 2.12405 22.7732 2.44357 24.3061 3.21784C25.839 3.99212 27.1184 5.18882 27.9933 6.66668C28.8681 8.14454 29.3018 9.8396 29.2432 11.556Z" fill="white"/>
</g>
<defs>
<clipPath id="clip0_12_237">
<rect width="36" height="36" fill="white"/>
</clipPath>
</defs>
</svg>
