<svg width="40" height="40" viewBox="0 0 40 40" fill="none" xmlns="http://www.w3.org/2000/svg">
<g clip-path="url(#clip0_12_241)">
<path d="M20.5275 5.11749C20.3623 5.04058 20.1822 5.00073 20 5.00073C19.8178 5.00073 19.6377 5.04058 19.4725 5.11749L0.722496 13.8675C0.501702 13.9705 0.315842 14.1359 0.187774 14.3432C0.0597061 14.5505 -0.00498582 14.7907 0.00165462 15.0342C0.00829505 15.2778 0.0859782 15.5141 0.22515 15.7141C0.364323 15.9141 0.558915 16.0691 0.784997 16.16L19.535 23.66C19.8335 23.7796 20.1665 23.7796 20.465 23.66L35 17.85V32.5C34.337 32.5 33.7011 32.7634 33.2322 33.2322C32.7634 33.7011 32.5 34.3369 32.5 35V40H40V35C40 34.3369 39.7366 33.7011 39.2678 33.2322C38.7989 32.7634 38.163 32.5 37.5 32.5V16.8475L39.215 16.16C39.4411 16.0691 39.6357 15.9141 39.7748 15.7141C39.914 15.5141 39.9917 15.2778 39.9983 15.0342C40.005 14.7907 39.9403 14.5505 39.8122 14.3432C39.6842 14.1359 39.4983 13.9705 39.2775 13.8675L20.5275 5.11749Z" fill="white"/>
<path d="M10.44 22.58C10.279 22.5194 10.1073 22.4926 9.93552 22.5014C9.76374 22.5102 9.59563 22.5543 9.44169 22.631C9.28775 22.7078 9.15131 22.8155 9.04089 22.9473C8.93048 23.0792 8.84847 23.2325 8.8 23.3975L7.55 27.6475C7.46244 27.9459 7.48923 28.2662 7.62514 28.5458C7.76105 28.8255 7.99631 29.0445 8.285 29.16L19.535 33.66C19.8335 33.7796 20.1665 33.7796 20.465 33.66L31.715 29.16C32.0037 29.0445 32.239 28.8255 32.3749 28.5458C32.5108 28.2662 32.5376 27.9459 32.45 27.6475L31.2 23.3975C31.1515 23.2325 31.0695 23.0792 30.9591 22.9473C30.8487 22.8155 30.7122 22.7078 30.5583 22.631C30.4044 22.5543 30.2363 22.5102 30.0645 22.5014C29.8927 22.4926 29.721 22.5194 29.56 22.58L20 26.165L10.44 22.58Z" fill="white"/>
</g>
<defs>
<clipPath id="clip0_12_241">
<rect width="40" height="40" fill="white"/>
</clipPath>
</defs>
</svg>
