<svg width="32" height="32" viewBox="0 0 32 32" fill="none" xmlns="http://www.w3.org/2000/svg">
<g clip-path="url(#clip0_12_392)">
<path fill-rule="evenodd" clip-rule="evenodd" d="M20.708 12.2921C20.8011 12.385 20.875 12.4953 20.9254 12.6168C20.9758 12.7383 21.0018 12.8685 21.0018 13.0001C21.0018 13.1316 20.9758 13.2619 20.9254 13.3833C20.875 13.5048 20.8011 13.6152 20.708 13.7081L14.708 19.7081C14.6151 19.8012 14.5048 19.8751 14.3833 19.9255C14.2618 19.9759 14.1315 20.0019 14 20.0019C13.8685 20.0019 13.7382 19.9759 13.6167 19.9255C13.4952 19.8751 13.3849 19.8012 13.292 19.7081L10.292 16.7081C10.199 16.6151 10.1253 16.5047 10.075 16.3832C10.0246 16.2618 9.99874 16.1316 9.99874 16.0001C9.99874 15.8686 10.0246 15.7384 10.075 15.6169C10.1253 15.4954 10.199 15.3851 10.292 15.2921C10.385 15.1991 10.4954 15.1253 10.6168 15.075C10.7383 15.0247 10.8685 14.9988 11 14.9988C11.1315 14.9988 11.2617 15.0247 11.3832 15.075C11.5046 15.1253 11.615 15.1991 11.708 15.2921L14 17.5861L19.292 12.2921C19.3849 12.199 19.4952 12.1251 19.6167 12.0747C19.7382 12.0242 19.8685 11.9983 20 11.9983C20.1315 11.9983 20.2618 12.0242 20.3833 12.0747C20.5048 12.1251 20.6151 12.199 20.708 12.2921Z" fill="#3ABBA7"/>
<path d="M20.546 5.0261L18.704 3.1381L20.134 1.7421L21.378 3.0161L23.158 2.9941C23.9285 2.98498 24.693 3.13002 25.4067 3.42068C26.1203 3.71134 26.7686 4.14175 27.3135 4.68662C27.8583 5.23148 28.2888 5.87979 28.5794 6.59342C28.8701 7.30705 29.0151 8.0716 29.006 8.8421L28.986 10.6221L30.258 11.8661C30.8089 12.4044 31.2467 13.0475 31.5456 13.7574C31.8444 14.4673 31.9984 15.2298 31.9984 16.0001C31.9984 16.7704 31.8444 17.5329 31.5456 18.2428C31.2467 18.9527 30.8089 19.5958 30.258 20.1341L28.984 21.3781L29.006 23.1581C29.0151 23.9286 28.8701 24.6931 28.5794 25.4068C28.2888 26.1204 27.8583 26.7687 27.3135 27.3136C26.7686 27.8584 26.1203 28.2889 25.4067 28.5795C24.693 28.8702 23.9285 29.0152 23.158 29.0061L21.378 28.9861L20.134 30.2581C19.5957 30.809 18.9526 31.2468 18.2427 31.5457C17.5328 31.8445 16.7703 31.9985 16 31.9985C15.2297 31.9985 14.4672 31.8445 13.7573 31.5457C13.0474 31.2468 12.4043 30.809 11.866 30.2581L10.622 28.9841L8.842 29.0061C8.0715 29.0152 7.30695 28.8702 6.59332 28.5795C5.87969 28.2889 5.23138 27.8584 4.68652 27.3136C4.14165 26.7687 3.71124 26.1204 3.42058 25.4068C3.12992 24.6931 2.98488 23.9286 2.994 23.1581L3.014 21.3781L1.742 20.1341C1.19108 19.5958 0.753321 18.9527 0.454446 18.2428C0.155571 17.5329 0.0016098 16.7704 0.0016098 16.0001C0.0016098 15.2298 0.155571 14.4673 0.454446 13.7574C0.753321 13.0475 1.19108 12.4044 1.742 11.8661L3.016 10.6221L2.994 8.8421C2.98488 8.0716 3.12992 7.30705 3.42058 6.59342C3.71124 5.87979 4.14165 5.23148 4.68652 4.68662C5.23138 4.14175 5.87969 3.71134 6.59332 3.42068C7.30695 3.13002 8.0715 2.98498 8.842 2.9941L10.622 3.0141L11.866 1.7421C12.4043 1.19118 13.0474 0.753421 13.7573 0.454545C14.4672 0.15567 15.2297 0.00170898 16 0.00170898C16.7703 0.00170898 17.5328 0.15567 18.2427 0.454545C18.9526 0.753421 19.5957 1.19118 20.134 1.7421L18.704 3.1381C18.3519 2.77767 17.9313 2.49127 17.467 2.29573C17.0026 2.10019 16.5039 1.99946 16 1.99946C15.4961 1.99946 14.9974 2.10019 14.533 2.29573C14.0687 2.49127 13.6481 2.77767 13.296 3.1381L11.456 5.0261L8.816 4.9941C8.31236 4.98847 7.81267 5.08355 7.34628 5.27375C6.8799 5.46396 6.45624 5.74545 6.10018 6.1017C5.74412 6.45794 5.46285 6.88176 5.27289 7.34824C5.08292 7.81472 4.98811 8.31446 4.994 8.8181L5.026 11.4541L3.138 13.2961C2.77757 13.6482 2.49117 14.0688 2.29563 14.5331C2.10009 14.9975 1.99936 15.4962 1.99936 16.0001C1.99936 16.504 2.10009 17.0027 2.29563 17.4671C2.49117 17.9314 2.77757 18.352 3.138 18.7041L5.026 20.5441L4.994 23.1841C4.98837 23.6877 5.08345 24.1874 5.27365 24.6538C5.46386 25.1202 5.74535 25.5439 6.1016 25.8999C6.45785 26.256 6.88166 26.5373 7.34814 26.7272C7.81462 26.9172 8.31436 27.012 8.818 27.0061L11.454 26.9741L13.296 28.8621C13.6481 29.2225 14.0687 29.5089 14.533 29.7045C14.9974 29.9 15.4961 30.0007 16 30.0007C16.5039 30.0007 17.0026 29.9 17.467 29.7045C17.9313 29.5089 18.3519 29.2225 18.704 28.8621L20.544 26.9741L23.184 27.0061C23.6876 27.0117 24.1873 26.9166 24.6537 26.7264C25.1201 26.5362 25.5438 26.2547 25.8998 25.8985C26.2559 25.5423 26.5372 25.1184 26.7271 24.652C26.9171 24.1855 27.0119 23.6857 27.006 23.1821L26.974 20.5461L28.862 18.7041C29.2224 18.352 29.5088 17.9314 29.7044 17.4671C29.8999 17.0027 30.0006 16.504 30.0006 16.0001C30.0006 15.4962 29.8999 14.9975 29.7044 14.5331C29.5088 14.0688 29.2224 13.6482 28.862 13.2961L26.974 11.4561L27.006 8.8161C27.0116 8.31246 26.9165 7.81276 26.7263 7.34638C26.5361 6.88 26.2546 6.45634 25.8984 6.10028C25.5422 5.74422 25.1183 5.46295 24.6519 5.27298C24.1854 5.08302 23.6856 4.98821 23.182 4.9941L20.546 5.0261Z" fill="#3ABBA7"/>
</g>
<defs>
<clipPath id="clip0_12_392">
<rect width="32" height="32" fill="white"/>
</clipPath>
</defs>
</svg>
