<svg width="19" height="13" viewBox="0 0 19 13" fill="none" xmlns="http://www.w3.org/2000/svg">
<path fill-rule="evenodd" clip-rule="evenodd" d="M0.3125 6.49997C0.3125 6.32593 0.38164 6.15901 0.504711 6.03594C0.627782 5.91287 0.794702 5.84372 0.96875 5.84372H16.4471L12.3166 1.7146C12.1934 1.59137 12.1242 1.42424 12.1242 1.24997C12.1242 1.07571 12.1934 0.908576 12.3166 0.785349C12.4399 0.662123 12.607 0.592896 12.7812 0.592896C12.9555 0.592896 13.1226 0.662123 13.2459 0.785349L18.4959 6.03535C18.557 6.09631 18.6055 6.16873 18.6386 6.24846C18.6716 6.32818 18.6887 6.41365 18.6887 6.49997C18.6887 6.58629 18.6716 6.67176 18.6386 6.75149C18.6055 6.83122 18.557 6.90364 18.4959 6.9646L13.2459 12.2146C13.1226 12.3378 12.9555 12.4071 12.7812 12.4071C12.607 12.4071 12.4399 12.3378 12.3166 12.2146C12.1934 12.0914 12.1242 11.9242 12.1242 11.75C12.1242 11.5757 12.1934 11.4086 12.3166 11.2853L16.4471 7.15622H0.96875C0.794702 7.15622 0.627782 7.08708 0.504711 6.96401C0.38164 6.84094 0.3125 6.67402 0.3125 6.49997Z" fill="white"/>
</svg>
